# xmcd CD database file generated by Grip 3.2.0
# 
# Track frame offsets:
#       150
#       17675
#       33202
#       52927
#       77000
#       95900
#       114727
#       135125
#       156575
#       183050
# 
# Disc length: 2482 seconds
# 
# Revision: 1
# Processed by: cddbd v1.5.2PL0 Copyright (c) Steve Scherf et al.
# Submitted via: Grip 3.2.0
# 
DISCID=7309b00a
DTITLE=Jeff Reynolds - Emotions
DYEAR=1982
DGENRE=Blues
TTITLE0=Stormforce
TTITLE1=Emotions
TTITLE2=Ollie
TTITLE3=Earthrise
TTITLE4=The Jam
TTITLE5=Mandy
TTITLE6=Sundragon
TTITLE7=On the Road
TTITLE8=Crocodile
TTITLE9=The End
EXTD=
EXTT0=
EXTT1=
EXTT2=
EXTT3=
EXTT4=
EXTT5=
EXTT6=
EXTT7=
EXTT8=
EXTT9=
PLAYORDER=
